<?xml version="1.0" encoding="windows-1252" standalone="no"?>
<svg xmlns="http://www.w3.org/2000/svg" xmlns:xlink="http://www.w3.org/1999/xlink" contentStyleType="text/css" height="512px" preserveAspectRatio="none" style="width:636px;height:512px;background:#FFFFFF;" version="1.1" viewBox="0 0 636 512" width="636px" zoomAndPan="magnify"><defs/><g><ellipse cx="248.0681" cy="16" fill="#222222" rx="10" ry="10" style="stroke:none;stroke-width:1.0;"/><g id="ACCEPT_DATA_IN"><rect fill="#F1F1F1" height="78.2031" rx="12.5" ry="12.5" style="stroke:#181818;stroke-width:0.5;" width="362" x="67.0679" y="103"/><line style="stroke:#181818;stroke-width:0.5;" x1="67.0679" x2="429.0679" y1="129.2969" y2="129.2969"/><text fill="#000000" font-family="sans-serif" font-size="14" lengthAdjust="spacing" textLength="125" x="185.5679" y="120.9951">ACCEPT_DATA_IN</text><text fill="#000000" font-family="sans-serif" font-size="12" lengthAdjust="spacing" textLength="91" x="72.0679" y="145.4355">TVALID_OUT=0</text><text fill="#000000" font-family="sans-serif" font-size="12" lengthAdjust="spacing" textLength="79" x="72.0679" y="159.4043">TREADY_IN=1</text><text fill="#000000" font-family="sans-serif" font-size="12" lengthAdjust="spacing" textLength="342" x="72.0679" y="173.373">if TVALID_IN then COUNTER+=1 else COUNTER=COUNTER</text></g><g id="DATA_OUT"><rect fill="#F1F1F1" height="78.2031" rx="12.5" ry="12.5" style="stroke:#181818;stroke-width:0.5;" width="303" x="96.5679" y="428"/><line style="stroke:#181818;stroke-width:0.5;" x1="96.5679" x2="399.5679" y1="454.2969" y2="454.2969"/><text fill="#000000" font-family="sans-serif" font-size="14" lengthAdjust="spacing" textLength="76" x="210.0679" y="445.9951">DATA_OUT</text><text fill="#000000" font-family="sans-serif" font-size="12" lengthAdjust="spacing" textLength="90" x="101.5679" y="470.4355">TVALID_OUT=1</text><text fill="#000000" font-family="sans-serif" font-size="12" lengthAdjust="spacing" textLength="149" x="101.5679" y="484.4043">TREADY_OUT=TREADY_IN</text><text fill="#000000" font-family="sans-serif" font-size="12" lengthAdjust="spacing" textLength="283" x="101.5679" y="498.373">if(TREADY_OUT): COUNTER=1 else COUNTER=0</text></g><g id="PAD"><rect fill="#F1F1F1" height="78.2031" rx="12.5" ry="12.5" style="stroke:#181818;stroke-width:0.5;" width="111" x="192.5681" y="273"/><line style="stroke:#181818;stroke-width:0.5;" x1="192.5681" x2="303.5681" y1="299.2969" y2="299.2969"/><text fill="#000000" font-family="sans-serif" font-size="14" lengthAdjust="spacing" textLength="30" x="233.0681" y="290.9951">PAD</text><text fill="#000000" font-family="sans-serif" font-size="12" lengthAdjust="spacing" textLength="91" x="197.5681" y="315.4355">TVALID_OUT=0</text><text fill="#000000" font-family="sans-serif" font-size="12" lengthAdjust="spacing" textLength="80" x="197.5681" y="329.4043">TREADY_IN=0</text><text fill="#000000" font-family="sans-serif" font-size="12" lengthAdjust="spacing" textLength="83" x="197.5681" y="343.373">COUNTER+=1</text></g><!--link *start* to ACCEPT_DATA_IN--><g id="link_*start*_ACCEPT_DATA_IN"><path d="M248.0681,26.32 C248.0681,41.369 248.0681,71.942 248.0681,97.738 " fill="none" id="*start*-to-ACCEPT_DATA_IN" style="stroke:#181818;stroke-width:1.0;"/><polygon fill="#181818" points="248.0681,102.828,252.0681,93.828,248.0681,97.828,244.0681,93.828,248.0681,102.828" style="stroke:#181818;stroke-width:1.0;"/><text fill="#000000" font-family="sans-serif" font-size="13" lengthAdjust="spacing" textLength="41" x="249.0681" y="69.0669">RESET</text></g><!--link ACCEPT_DATA_IN to ACCEPT_DATA_IN--><g id="link_ACCEPT_DATA_IN_ACCEPT_DATA_IN"><path d="M429.2761,129.838 C450.3551,132.083 464.0681,136.137 464.0681,142 C464.0681,147.359 452.6101,151.207 434.5431,153.543 " fill="none" id="ACCEPT_DATA_IN-to-ACCEPT_DATA_IN" style="stroke:#181818;stroke-width:1.0;"/><polygon fill="#181818" points="429.2761,154.162,438.6811,157.0855,434.242,153.5791,437.7485,149.1401,429.2761,154.162" style="stroke:#181818;stroke-width:1.0;"/><text fill="#000000" font-family="sans-serif" font-size="13" lengthAdjust="spacing" textLength="149" x="470.0681" y="139.0669">LAST_SUBTRANSFER=0</text><text fill="#000000" font-family="sans-serif" font-size="13" lengthAdjust="spacing" textLength="77" x="510.0681" y="154.1997">TLAST_IN=0</text></g><!--link ACCEPT_DATA_IN to DATA_OUT--><g id="link_ACCEPT_DATA_IN_DATA_OUT"><path d="M134.0351,181.056 C91.7525,201.343 48.2448,231.015 24.0679,273 C6.7685,303.042 6,321.414 24.0679,351 C44.4553,384.384 77.9582,408.4802 112.9171,425.703 " fill="none" id="ACCEPT_DATA_IN-to-DATA_OUT" style="stroke:#181818;stroke-width:1.0;"/><polygon fill="#181818" points="117.6331,427.9815,111.2682,420.4657,113.1307,425.8071,107.7892,427.6696,117.6331,427.9815" style="stroke:#181818;stroke-width:1.0;"/><text fill="#000000" font-family="sans-serif" font-size="13" lengthAdjust="spacing" textLength="149" x="25.0679" y="316.5669">LAST_SUBTRANSFER=1</text></g><!--link DATA_OUT to ACCEPT_DATA_IN--><g id="link_DATA_OUT_ACCEPT_DATA_IN"><path d="M399.5961,430.2925 C439.3041,413.1638 477.3301,387.968 500.0681,351 C518.2301,321.472 516.1121,303.73 500.0681,273 C478.3601,231.422 437.9041,202.785 395.6621,183.217 " fill="none" id="DATA_OUT-to-ACCEPT_DATA_IN" style="stroke:#181818;stroke-width:1.0;"/><polygon fill="#181818" points="391.0381,181.113,397.5746,188.4801,395.5895,183.183,400.8866,181.1979,391.0381,181.113" style="stroke:#181818;stroke-width:1.0;"/><text fill="#000000" font-family="sans-serif" font-size="13" lengthAdjust="spacing" textLength="104" x="513.0681" y="316.5669">TREADY_OUT=1</text></g><!--link ACCEPT_DATA_IN to PAD--><g id="link_ACCEPT_DATA_IN_PAD"><path d="M248.0681,181.122 C248.0681,206.807 248.0681,240.747 248.0681,267.491 " fill="none" id="ACCEPT_DATA_IN-to-PAD" style="stroke:#181818;stroke-width:1.0;"/><polygon fill="#181818" points="248.0681,272.739,252.0681,263.739,248.0681,267.739,244.0681,263.739,248.0681,272.739" style="stroke:#181818;stroke-width:1.0;"/><text fill="#000000" font-family="sans-serif" font-size="13" lengthAdjust="spacing" textLength="149" x="249.0681" y="224.0669">LAST_SUBTRANSFER=0</text><text fill="#000000" font-family="sans-serif" font-size="13" lengthAdjust="spacing" textLength="77" x="289.0681" y="239.1997">TLAST_IN=1</text></g><!--link PAD to PAD--><g id="link_PAD_PAD"><path d="M303.7441,297.753 C323.0091,297.603 338.5681,302.352 338.5681,312 C338.5681,320.744 325.7901,325.464 309.0551,326.16 " fill="none" id="PAD-to-PAD" style="stroke:#181818;stroke-width:1.0;"/><polygon fill="#181818" points="303.7441,326.247,312.8081,330.0999,308.7435,326.1656,312.6778,322.1009,303.7441,326.247" style="stroke:#181818;stroke-width:1.0;"/><text fill="#000000" font-family="sans-serif" font-size="13" lengthAdjust="spacing" textLength="149" x="344.5681" y="316.5669">LAST_SUBTRANSFER=0</text></g><!--link PAD to DATA_OUT--><g id="link_PAD_DATA_OUT"><path d="M248.0681,351.214 C248.0681,372.938 248.0681,400.211 248.0681,422.7219 " fill="none" id="PAD-to-DATA_OUT" style="stroke:#181818;stroke-width:1.0;"/><polygon fill="#181818" points="248.0681,427.7432,252.0681,418.7432,248.0681,422.7432,244.0681,418.7432,248.0681,427.7432" style="stroke:#181818;stroke-width:1.0;"/><text fill="#000000" font-family="sans-serif" font-size="13" lengthAdjust="spacing" textLength="149" x="249.0681" y="394.0669">LAST_SUBTRANSFER=1</text></g><!--link DATA_OUT to DATA_OUT--><g id="link_DATA_OUT_DATA_OUT"><path d="M399.9091,454.321 C420.6991,456.428 434.5681,460.6543 434.5681,467 C434.5681,472.8004 422.9801,476.83 405.1111,479.0889 " fill="none" id="DATA_OUT-to-DATA_OUT" style="stroke:#181818;stroke-width:1.0;"/><polygon fill="#181818" points="399.9091,479.679,409.3031,482.6377,404.8772,479.1147,408.4002,474.6889,399.9091,479.679" style="stroke:#181818;stroke-width:1.0;"/><text fill="#000000" font-family="sans-serif" font-size="13" lengthAdjust="spacing" textLength="104" x="440.5681" y="471.5669">TREADY_OUT=0</text></g><!--SRC=[bPBB2eCm44Nt-OhPzOMGR0iMKar141Kp5afRN2aLYfls_saQDRvIYjcOt9d9t3Fckhs3uno0Uvv8CFSvyZo8O0-fa089cUbuvc7Wvt66BhL4Ky7zYzgxR1wiogvQ7T-FeWOlpY8KwSvbK3nVHNTssozPEOlMjAKLBEGISvaTCUMHFAbc56ure9QLRsgxHEyLCZJBSWcpbINS_z-G4KAQnD5eMydCirFwaIsSZgxlNFt2e2RB85jX2Hd41xxPI6_CVtN3COnNvRfFsHYqwMEWIq5D2-kl6xYYuzHVhrc3VG00]--></g></svg>