<?xml version="1.0" encoding="windows-1252" standalone="no"?>
<svg xmlns="http://www.w3.org/2000/svg" xmlns:xlink="http://www.w3.org/1999/xlink" contentStyleType="text/css" height="927px" preserveAspectRatio="none" style="width:1091px;height:927px;background:#FFFFFF;" version="1.1" viewBox="0 0 1091 927" width="1091px" zoomAndPan="magnify"><defs/><g><ellipse cx="515.0694" cy="16" fill="#222222" rx="10" ry="10" style="stroke:none;stroke-width:1.0;"/><g id="NO_VALID_DATA_IN"><rect fill="#F1F1F1" height="78.2031" rx="12.5" ry="12.5" style="stroke:#181818;stroke-width:0.5;" width="169" x="430.5694" y="103"/><line style="stroke:#181818;stroke-width:0.5;" x1="430.5694" x2="599.5694" y1="129.2969" y2="129.2969"/><text fill="#000000" font-family="sans-serif" font-size="14" lengthAdjust="spacing" textLength="139" x="445.5694" y="120.9951">NO_VALID_DATA_IN</text><text fill="#000000" font-family="sans-serif" font-size="12" lengthAdjust="spacing" textLength="141" x="435.5694" y="145.4355">TVALID_OUT=TVALID_IN</text><text fill="#000000" font-family="sans-serif" font-size="12" lengthAdjust="spacing" textLength="149" x="435.5694" y="159.4043">TREADY_IN=TREADY_OUT</text><text fill="#000000" font-family="sans-serif" font-size="12" lengthAdjust="spacing" textLength="74" x="435.5694" y="173.373">COUNTER=0</text></g><g id="VALID_DATA_IN_NO_READY_OUT"><rect fill="#F1F1F1" height="78.2031" rx="12.5" ry="12.5" style="stroke:#181818;stroke-width:0.5;" width="251" x="389.5694" y="288"/><line style="stroke:#181818;stroke-width:0.5;" x1="389.5694" x2="640.5694" y1="314.2969" y2="314.2969"/><text fill="#000000" font-family="sans-serif" font-size="14" lengthAdjust="spacing" textLength="231" x="399.5694" y="305.9951">VALID_DATA_IN_NO_READY_OUT</text><text fill="#000000" font-family="sans-serif" font-size="12" lengthAdjust="spacing" textLength="141" x="394.5694" y="330.4355">TVALID_OUT=TVALID_IN</text><text fill="#000000" font-family="sans-serif" font-size="12" lengthAdjust="spacing" textLength="149" x="394.5694" y="344.4043">TREADY_IN=TREADY_OUT</text><text fill="#000000" font-family="sans-serif" font-size="12" lengthAdjust="spacing" textLength="74" x="394.5694" y="358.373">COUNTER=0</text></g><g id="ACCEPT_DATA_IN"><rect fill="#F1F1F1" height="78.2031" rx="12.5" ry="12.5" style="stroke:#181818;stroke-width:0.5;" width="145" x="167.5694" y="473"/><line style="stroke:#181818;stroke-width:0.5;" x1="167.5694" x2="312.5694" y1="499.2969" y2="499.2969"/><text fill="#000000" font-family="sans-serif" font-size="14" lengthAdjust="spacing" textLength="125" x="177.5694" y="490.9951">ACCEPT_DATA_IN</text><text fill="#000000" font-family="sans-serif" font-size="12" lengthAdjust="spacing" textLength="90" x="172.5694" y="515.4355">TVALID_OUT=1</text><text fill="#000000" font-family="sans-serif" font-size="12" lengthAdjust="spacing" textLength="94" x="172.5694" y="529.4043">TREADY_OUT=1</text><text fill="#000000" font-family="sans-serif" font-size="12" lengthAdjust="spacing" textLength="74" x="172.5694" y="543.373">COUNTER=0</text></g><g id="DATA_OUT"><rect fill="#F1F1F1" height="78.2031" rx="12.5" ry="12.5" style="stroke:#181818;stroke-width:0.5;" width="115" x="330.5694" y="658"/><line style="stroke:#181818;stroke-width:0.5;" x1="330.5694" x2="445.5694" y1="684.2969" y2="684.2969"/><text fill="#000000" font-family="sans-serif" font-size="14" lengthAdjust="spacing" textLength="76" x="350.0694" y="675.9951">DATA_OUT</text><text fill="#000000" font-family="sans-serif" font-size="12" lengthAdjust="spacing" textLength="90" x="335.5694" y="700.4355">TVALID_OUT=1</text><text fill="#000000" font-family="sans-serif" font-size="12" lengthAdjust="spacing" textLength="95" x="335.5694" y="714.4043">TREADY_OUT=0</text><text fill="#000000" font-family="sans-serif" font-size="12" lengthAdjust="spacing" textLength="83" x="335.5694" y="728.373">COUNTER+=1</text></g><g id="NO_READY_IN_TRANSMISSION"><rect fill="#F1F1F1" height="78.2031" rx="12.5" ry="12.5" style="stroke:#181818;stroke-width:0.5;" width="232" x="118.069" y="843"/><line style="stroke:#181818;stroke-width:0.5;" x1="118.069" x2="350.069" y1="869.2969" y2="869.2969"/><text fill="#000000" font-family="sans-serif" font-size="14" lengthAdjust="spacing" textLength="212" x="128.069" y="860.9951">NO_READY_IN_TRANSMISSION</text><text fill="#000000" font-family="sans-serif" font-size="12" lengthAdjust="spacing" textLength="90" x="123.069" y="885.4355">TVALID_OUT=1</text><text fill="#000000" font-family="sans-serif" font-size="12" lengthAdjust="spacing" textLength="95" x="123.069" y="899.4043">TREADY_OUT=0</text><text fill="#000000" font-family="sans-serif" font-size="12" lengthAdjust="spacing" textLength="122" x="123.069" y="913.373">COUNTER=COUNTER</text></g><!--link *start* to NO_VALID_DATA_IN--><g id="link_*start*_NO_VALID_DATA_IN"><path d="M515.0694,26.32 C515.0694,41.369 515.0694,71.942 515.0694,97.738 " fill="none" id="*start*-to-NO_VALID_DATA_IN" style="stroke:#181818;stroke-width:1.0;"/><polygon fill="#181818" points="515.0694,102.828,519.0694,93.828,515.0694,97.828,511.0694,93.828,515.0694,102.828" style="stroke:#181818;stroke-width:1.0;"/><text fill="#000000" font-family="sans-serif" font-size="13" lengthAdjust="spacing" textLength="41" x="516.0694" y="69.0669">RESET</text></g><!--link NO_VALID_DATA_IN to NO_VALID_DATA_IN--><g id="link_NO_VALID_DATA_IN_NO_VALID_DATA_IN"><path d="M599.6504,128.016 C619.7264,129.138 634.5694,133.799 634.5694,142 C634.5694,149.496 622.1674,154.035 604.7044,155.616 " fill="none" id="NO_VALID_DATA_IN-to-NO_VALID_DATA_IN" style="stroke:#181818;stroke-width:1.0;"/><polygon fill="#181818" points="599.6504,155.984,608.917,159.3202,604.6372,155.6211,608.3363,151.3413,599.6504,155.984" style="stroke:#181818;stroke-width:1.0;"/><text fill="#000000" font-family="sans-serif" font-size="13" lengthAdjust="spacing" textLength="83" x="653.5694" y="131.5669">TVALID_IN=0</text><text fill="#000000" font-family="sans-serif" font-size="13" lengthAdjust="spacing" textLength="105" x="644.5694" y="146.6997">TREADY_OUT=X</text><text fill="#000000" font-family="sans-serif" font-size="13" lengthAdjust="spacing" textLength="81" x="658.5694" y="161.8325">COUNTER=X</text></g><!--link NO_VALID_DATA_IN to VALID_DATA_IN_NO_READY_OUT--><g id="link_NO_VALID_DATA_IN_VALID_DATA_IN_NO_READY_OUT"><path d="M457.0224,181.339 C448.1174,189.974 440.1954,199.915 435.0694,211 C426.3014,229.96 426.3014,239.04 435.0694,258 C439.4744,267.526 445.9454,276.207 453.3294,283.941 " fill="none" id="NO_VALID_DATA_IN-to-VALID_DATA_IN_NO_READY_OUT" style="stroke:#181818;stroke-width:1.0;"/><polygon fill="#181818" points="457.0224,287.661,453.5203,278.4558,453.4997,284.1126,447.8429,284.0921,457.0224,287.661" style="stroke:#181818;stroke-width:1.0;"/><text fill="#000000" font-family="sans-serif" font-size="13" lengthAdjust="spacing" textLength="83" x="448.5694" y="224.0669">TVALID_IN=1</text><text fill="#000000" font-family="sans-serif" font-size="13" lengthAdjust="spacing" textLength="104" x="440.0694" y="239.1997">TREADY_OUT=0</text><text fill="#000000" font-family="sans-serif" font-size="13" lengthAdjust="spacing" textLength="81" x="453.5694" y="254.3325">COUNTER=X</text></g><!--link VALID_DATA_IN_NO_READY_OUT to NO_VALID_DATA_IN--><g id="link_VALID_DATA_IN_NO_READY_OUT_NO_VALID_DATA_IN"><path d="M540.7794,287.897 C545.8444,278.508 550.4104,268.208 553.0694,258 C558.3344,237.786 558.3344,231.214 553.0694,211 C550.8254,202.387 547.2244,193.708 543.1114,185.567 " fill="none" id="VALID_DATA_IN_NO_READY_OUT-to-NO_VALID_DATA_IN" style="stroke:#181818;stroke-width:1.0;"/><polygon fill="#181818" points="540.7794,181.103,541.4025,190.9321,543.0951,185.5344,548.4928,187.227,540.7794,181.103" style="stroke:#181818;stroke-width:1.0;"/><text fill="#000000" font-family="sans-serif" font-size="13" lengthAdjust="spacing" textLength="83" x="571.0694" y="224.0669">TVALID_IN=0</text><text fill="#000000" font-family="sans-serif" font-size="13" lengthAdjust="spacing" textLength="105" x="562.0694" y="239.1997">TREADY_OUT=X</text><text fill="#000000" font-family="sans-serif" font-size="13" lengthAdjust="spacing" textLength="81" x="576.0694" y="254.3325">COUNTER=X</text></g><!--link NO_VALID_DATA_IN to ACCEPT_DATA_IN--><g id="link_NO_VALID_DATA_IN_ACCEPT_DATA_IN"><path d="M430.5674,167.305 C371.7774,188.933 297.1844,226.817 258.0694,288 C223.3484,342.308 226.0794,419.917 232.2964,467.796 " fill="none" id="NO_VALID_DATA_IN-to-ACCEPT_DATA_IN" style="stroke:#181818;stroke-width:1.0;"/><polygon fill="#181818" points="232.9884,472.908,235.7462,463.4531,232.3183,467.9531,227.8183,464.5253,232.9884,472.908" style="stroke:#181818;stroke-width:1.0;"/><text fill="#000000" font-family="sans-serif" font-size="13" lengthAdjust="spacing" textLength="83" x="271.5694" y="316.5669">TVALID_IN=1</text><text fill="#000000" font-family="sans-serif" font-size="13" lengthAdjust="spacing" textLength="104" x="263.0694" y="331.6997">TREADY_OUT=1</text><text fill="#000000" font-family="sans-serif" font-size="13" lengthAdjust="spacing" textLength="81" x="276.5694" y="346.8325">COUNTER=X</text></g><!--link VALID_DATA_IN_NO_READY_OUT to VALID_DATA_IN_NO_READY_OUT--><g id="link_VALID_DATA_IN_NO_READY_OUT_VALID_DATA_IN_NO_READY_OUT"><path d="M640.9004,311.04 C661.4474,313.324 675.5694,318.645 675.5694,327 C675.5694,334.637 663.7704,339.739 646.0504,342.304 " fill="none" id="VALID_DATA_IN_NO_READY_OUT-to-VALID_DATA_IN_NO_READY_OUT" style="stroke:#181818;stroke-width:1.0;"/><polygon fill="#181818" points="640.9004,342.96,650.3335,345.7914,645.8604,342.3286,649.3232,337.8555,640.9004,342.96" style="stroke:#181818;stroke-width:1.0;"/><text fill="#000000" font-family="sans-serif" font-size="13" lengthAdjust="spacing" textLength="83" x="694.0694" y="316.5669">TVALID_IN=1</text><text fill="#000000" font-family="sans-serif" font-size="13" lengthAdjust="spacing" textLength="104" x="685.5694" y="331.6997">TREADY_OUT=0</text><text fill="#000000" font-family="sans-serif" font-size="13" lengthAdjust="spacing" textLength="81" x="699.0694" y="346.8325">COUNTER=X</text></g><!--link VALID_DATA_IN_NO_READY_OUT to ACCEPT_DATA_IN--><g id="link_VALID_DATA_IN_NO_READY_OUT_ACCEPT_DATA_IN"><path d="M436.3704,366.118 C419.1154,375.31 401.1944,385.522 385.0694,396 C350.9164,418.192 315.0324,446.604 287.5064,469.635 " fill="none" id="VALID_DATA_IN_NO_READY_OUT-to-ACCEPT_DATA_IN" style="stroke:#181818;stroke-width:1.0;"/><polygon fill="#181818" points="283.5074,472.992,292.9721,470.2682,287.3367,469.7769,287.828,464.1414,283.5074,472.992" style="stroke:#181818;stroke-width:1.0;"/><text fill="#000000" font-family="sans-serif" font-size="13" lengthAdjust="spacing" textLength="83" x="398.5694" y="409.0669">TVALID_IN=1</text><text fill="#000000" font-family="sans-serif" font-size="13" lengthAdjust="spacing" textLength="104" x="390.0694" y="424.1997">TREADY_OUT=1</text><text fill="#000000" font-family="sans-serif" font-size="13" lengthAdjust="spacing" textLength="81" x="403.5694" y="439.3325">COUNTER=X</text></g><!--link ACCEPT_DATA_IN to DATA_OUT--><g id="link_ACCEPT_DATA_IN_DATA_OUT"><path d="M312.5974,548.381 C326.1114,557.527 339.0964,568.413 349.0694,581 C365.5074,601.75 375.2034,629.812 380.8154,653.021 " fill="none" id="ACCEPT_DATA_IN-to-DATA_OUT" style="stroke:#181818;stroke-width:1.0;"/><polygon fill="#181818" points="381.9524,657.895,383.8059,648.2221,380.8179,653.0254,376.0146,650.0374,381.9524,657.895" style="stroke:#181818;stroke-width:1.0;"/><text fill="#000000" font-family="sans-serif" font-size="13" lengthAdjust="spacing" textLength="84" x="387.0694" y="594.0669">TVALID_IN=X</text><text fill="#000000" font-family="sans-serif" font-size="13" lengthAdjust="spacing" textLength="104" x="379.0694" y="609.1997">TREADY_OUT=1</text><text fill="#000000" font-family="sans-serif" font-size="13" lengthAdjust="spacing" textLength="81" x="392.5694" y="624.3325">COUNTER=X</text></g><!--link DATA_OUT to ACCEPT_DATA_IN--><g id="link_DATA_OUT_ACCEPT_DATA_IN"><path d="M330.5634,687.123 C246.5574,673.576 98.5292,647.287 83.069,628 C70.0039,611.701 71.6033,598.461 83.069,581 C101.0213,553.661 132.5752,537.26 162.7094,527.445 " fill="none" id="DATA_OUT-to-ACCEPT_DATA_IN" style="stroke:#181818;stroke-width:1.0;"/><polygon fill="#181818" points="167.5314,525.926,157.7453,524.8162,162.7626,527.4289,160.1499,532.4463,167.5314,525.926" style="stroke:#181818;stroke-width:1.0;"/><text fill="#000000" font-family="sans-serif" font-size="13" lengthAdjust="spacing" textLength="83" x="168.569" y="594.0669">TVALID_IN=1</text><text fill="#000000" font-family="sans-serif" font-size="13" lengthAdjust="spacing" textLength="104" x="160.069" y="609.1997">TREADY_OUT=1</text><text fill="#000000" font-family="sans-serif" font-size="13" lengthAdjust="spacing" textLength="252" x="88.069" y="624.3325">COUNTER=MAX_SUB_TRANSFER_INDEX</text></g><!--link ACCEPT_DATA_IN to NO_READY_IN_TRANSMISSION--><g id="link_ACCEPT_DATA_IN_NO_READY_IN_TRANSMISSION"><path d="M167.5264,521.998 C130.6158,530.659 88.8396,547.653 66.069,581 C6,668.968 111.3015,780.064 180.6164,839.3031 " fill="none" id="ACCEPT_DATA_IN-to-NO_READY_IN_TRANSMISSION" style="stroke:#181818;stroke-width:1.0;"/><polygon fill="#181818" points="184.7144,842.781,180.4413,833.9074,180.9024,839.5454,175.2644,840.0066,184.7144,842.781" style="stroke:#181818;stroke-width:1.0;"/><text fill="#000000" font-family="sans-serif" font-size="13" lengthAdjust="spacing" textLength="84" x="96.069" y="686.5669">TVALID_IN=X</text><text fill="#000000" font-family="sans-serif" font-size="13" lengthAdjust="spacing" textLength="104" x="88.069" y="701.6997">TREADY_OUT=0</text><text fill="#000000" font-family="sans-serif" font-size="13" lengthAdjust="spacing" textLength="81" x="101.569" y="716.8325">COUNTER=X</text></g><!--link NO_READY_IN_TRANSMISSION to NO_READY_IN_TRANSMISSION--><g id="link_NO_READY_IN_TRANSMISSION_NO_READY_IN_TRANSMISSION"><path d="M350.2444,865.7947 C370.7644,867.9283 385.0694,873.3301 385.0694,882 C385.0694,889.9249 373.1174,895.1191 355.3924,897.5828 " fill="none" id="NO_READY_IN_TRANSMISSION-to-NO_READY_IN_TRANSMISSION" style="stroke:#181818;stroke-width:1.0;"/><polygon fill="#181818" points="350.2444,898.2053,359.6594,901.0964,355.2083,897.6053,358.6994,893.1542,350.2444,898.2053" style="stroke:#181818;stroke-width:1.0;"/><text fill="#000000" font-family="sans-serif" font-size="13" lengthAdjust="spacing" textLength="84" x="403.0694" y="871.5669">TVALID_IN=X</text><text fill="#000000" font-family="sans-serif" font-size="13" lengthAdjust="spacing" textLength="104" x="395.0694" y="886.6997">TREADY_OUT=0</text><text fill="#000000" font-family="sans-serif" font-size="13" lengthAdjust="spacing" textLength="81" x="408.5694" y="901.8325">COUNTER=X</text></g><!--link NO_READY_IN_TRANSMISSION to DATA_OUT--><g id="link_NO_READY_IN_TRANSMISSION_DATA_OUT"><path d="M222.6654,842.782 C217.8894,818.831 216.3794,788.371 231.0694,766 C251.9704,734.17 291.3084,717.167 325.3764,708.123 " fill="none" id="NO_READY_IN_TRANSMISSION-to-DATA_OUT" style="stroke:#181818;stroke-width:1.0;"/><polygon fill="#181818" points="330.3624,706.845,320.651,705.2051,325.519,708.0866,322.6375,712.9545,330.3624,706.845" style="stroke:#181818;stroke-width:1.0;"/><text fill="#000000" font-family="sans-serif" font-size="13" lengthAdjust="spacing" textLength="84" x="244.0694" y="779.0669">TVALID_IN=X</text><text fill="#000000" font-family="sans-serif" font-size="13" lengthAdjust="spacing" textLength="104" x="236.0694" y="794.1997">TREADY_OUT=1</text><text fill="#000000" font-family="sans-serif" font-size="13" lengthAdjust="spacing" textLength="81" x="249.5694" y="809.3325">COUNTER=X</text></g><!--link DATA_OUT to NO_READY_IN_TRANSMISSION--><g id="link_DATA_OUT_NO_READY_IN_TRANSMISSION"><path d="M382.1294,736.247 C376.7984,760.359 366.9404,790.985 349.0694,813 C340.8744,823.095 330.7534,832.0296 319.9444,839.8278 " fill="none" id="DATA_OUT-to-NO_READY_IN_TRANSMISSION" style="stroke:#181818;stroke-width:1.0;"/><polygon fill="#181818" points="315.6064,842.8733,325.2703,840.9737,319.698,839.9995,320.6722,834.4272,315.6064,842.8733" style="stroke:#181818;stroke-width:1.0;"/><text fill="#000000" font-family="sans-serif" font-size="13" lengthAdjust="spacing" textLength="84" x="459.5694" y="779.0669">TVALID_IN=X</text><text fill="#000000" font-family="sans-serif" font-size="13" lengthAdjust="spacing" textLength="104" x="451.5694" y="794.1997">TREADY_OUT=0</text><text fill="#000000" font-family="sans-serif" font-size="13" lengthAdjust="spacing" textLength="253" x="379.0694" y="809.3325">COUNTER&#8800;MAX_SUB_TRANSFER_INDEX</text></g><!--link DATA_OUT to DATA_OUT--><g id="link_DATA_OUT_DATA_OUT"><path d="M445.8814,679.75 C465.1524,679.75 480.5694,685.5 480.5694,697 C480.5694,707.422 467.9074,713.121 451.1904,714.098 " fill="none" id="DATA_OUT-to-DATA_OUT" style="stroke:#181818;stroke-width:1.0;"/><polygon fill="#181818" points="445.8814,714.25,454.992,717.9912,450.8794,714.1071,454.7634,709.9944,445.8814,714.25" style="stroke:#181818;stroke-width:1.0;"/><text fill="#000000" font-family="sans-serif" font-size="13" lengthAdjust="spacing" textLength="84" x="571.0694" y="686.5669">TVALID_IN=X</text><text fill="#000000" font-family="sans-serif" font-size="13" lengthAdjust="spacing" textLength="104" x="563.0694" y="701.6997">TREADY_OUT=1</text><text fill="#000000" font-family="sans-serif" font-size="13" lengthAdjust="spacing" textLength="253" x="490.5694" y="716.8325">COUNTER&#8800;MAX_SUB_TRANSFER_INDEX</text></g><!--link DATA_OUT to VALID_DATA_IN_NO_READY_OUT--><g id="link_DATA_OUT_VALID_DATA_IN_NO_READY_OUT"><path d="M445.7644,672.877 C465.0354,662.172 484.5254,647.43 496.0694,628 C543.7734,547.702 534.0634,433.055 523.9014,371.33 " fill="none" id="DATA_OUT-to-VALID_DATA_IN_NO_READY_OUT" style="stroke:#181818;stroke-width:1.0;"/><polygon fill="#181818" points="523.0444,366.252,520.5995,375.7926,523.8773,371.1821,528.4877,374.46,523.0444,366.252" style="stroke:#181818;stroke-width:1.0;"/><text fill="#000000" font-family="sans-serif" font-size="13" lengthAdjust="spacing" textLength="83" x="618.5694" y="501.5669">TVALID_IN=1</text><text fill="#000000" font-family="sans-serif" font-size="13" lengthAdjust="spacing" textLength="104" x="610.0694" y="516.6997">TREADY_OUT=0</text><text fill="#000000" font-family="sans-serif" font-size="13" lengthAdjust="spacing" textLength="252" x="538.0694" y="531.8325">COUNTER=MAX_SUB_TRANSFER_INDEX</text></g><!--link DATA_OUT to NO_VALID_DATA_IN--><g id="link_DATA_OUT_NO_VALID_DATA_IN"><path d="M445.8954,695.084 C538.4454,690.118 717.6854,665.355 799.0694,551 C847.7784,482.556 821.2474,326.752 800.0694,288 C760.8764,216.284 672.5104,179.099 604.4884,160.447 " fill="none" id="DATA_OUT-to-NO_VALID_DATA_IN" style="stroke:#181818;stroke-width:1.0;"/><polygon fill="#181818" points="599.6274,159.135,607.2742,165.342,604.4547,160.4379,609.3588,157.6184,599.6274,159.135" style="stroke:#181818;stroke-width:1.0;"/><text fill="#000000" font-family="sans-serif" font-size="13" lengthAdjust="spacing" textLength="83" x="911.5694" y="409.0669">TVALID_IN=0</text><text fill="#000000" font-family="sans-serif" font-size="13" lengthAdjust="spacing" textLength="105" x="902.5694" y="424.1997">TREADY_OUT=X</text><text fill="#000000" font-family="sans-serif" font-size="13" lengthAdjust="spacing" textLength="252" x="831.0694" y="439.3325">COUNTER=MAX_SUB_TRANSFER_INDEX</text></g><!--SRC=[hPHHQiGW48RVFOLlXPP0ybgmO1CBGjSKDSNIBTwWz-WjzcnxahfDDj74JCnMNs9qvfln_yNF-ozS54zOjFQTllB6DbHJomL-n98ffX6AxEX-eUqq6QPSHECaeys7cvDXvZ9YSNNR2SqaAT5TiMiiOIjdcSROC2dnyHjFZH5p-R-sOkBeOCMwa35zaiMXgncwJ43JkcPlEjep1j1LY4OefSNGEJWZvY6OSRkR03QV-1j5yjYmKIJF3KLeqQpdRnNPzVfTxjxgsvnqEU3Vl3TcEQO36bZ527YKqicg9HNgm9NYRQ_WEhYSAmTm0WsXE0yFnLtB3j-zwgwID-H85WCi01YPR2D27YLGrr_trVJM1yo3Yzuft0Z9T27FFwS3DLPrpxrCBqowb8QPi5A66vfOASTJbL8dnxkRgDo_NyLudLy0]--></g></svg>