<?xml version="1.0" encoding="windows-1252" standalone="no"?>
<svg xmlns="http://www.w3.org/2000/svg" xmlns:xlink="http://www.w3.org/1999/xlink" contentStyleType="text/css" height="554px" preserveAspectRatio="none" style="width:841px;height:554px;background:#FFFFFF;" version="1.1" viewBox="0 0 841 554" width="841px" zoomAndPan="magnify"><defs/><g><ellipse cx="592.5" cy="16" fill="#222222" rx="10" ry="10" style="stroke:none;stroke-width:1.0;"/><g id="ACCEPT_DATA_IN"><rect fill="#F1F1F1" height="92.1719" rx="12.5" ry="12.5" style="stroke:#181818;stroke-width:0.5;" width="145" x="520" y="103"/><line style="stroke:#181818;stroke-width:0.5;" x1="520" x2="665" y1="129.2969" y2="129.2969"/><text fill="#000000" font-family="sans-serif" font-size="14" lengthAdjust="spacing" textLength="125" x="530" y="120.9951">ACCEPT_DATA_IN</text><text fill="#000000" font-family="sans-serif" font-size="12" lengthAdjust="spacing" textLength="91" x="525" y="145.4355">TVALID_OUT=0</text><text fill="#000000" font-family="sans-serif" font-size="12" lengthAdjust="spacing" textLength="79" x="525" y="159.4043">TREADY_IN=1</text><text fill="#000000" font-family="sans-serif" font-size="12" lengthAdjust="spacing" textLength="74" x="525" y="173.373">COUNTER=0</text><text fill="#000000" font-family="sans-serif" font-size="12" lengthAdjust="spacing" textLength="54" x="525" y="187.3418">TLAST=0</text></g><g id="DATA_OUT"><rect fill="#F1F1F1" height="92.1719" rx="12.5" ry="12.5" style="stroke:#181818;stroke-width:0.5;" width="361" x="7" y="272"/><line style="stroke:#181818;stroke-width:0.5;" x1="7" x2="368" y1="298.2969" y2="298.2969"/><text fill="#000000" font-family="sans-serif" font-size="14" lengthAdjust="spacing" textLength="76" x="149.5" y="289.9951">DATA_OUT</text><text fill="#000000" font-family="sans-serif" font-size="12" lengthAdjust="spacing" textLength="90" x="12" y="314.4355">TVALID_OUT=1</text><text fill="#000000" font-family="sans-serif" font-size="12" lengthAdjust="spacing" textLength="80" x="12" y="328.4043">TREADY_IN=0</text><text fill="#000000" font-family="sans-serif" font-size="12" lengthAdjust="spacing" textLength="341" x="12" y="342.373">if(TREADY_OUT): COUNTER+=1 else COUNTER=COUNTER</text><text fill="#000000" font-family="sans-serif" font-size="12" lengthAdjust="spacing" textLength="54" x="12" y="356.3418">TLAST=0</text></g><g id="LAST_DATA_OUT"><rect fill="#F1F1F1" height="92.1719" rx="12.5" ry="12.5" style="stroke:#181818;stroke-width:0.5;" width="164" x="300.5" y="456"/><line style="stroke:#181818;stroke-width:0.5;" x1="300.5" x2="464.5" y1="482.2969" y2="482.2969"/><text fill="#000000" font-family="sans-serif" font-size="14" lengthAdjust="spacing" textLength="119" x="323" y="473.9951">LAST_DATA_OUT</text><text fill="#000000" font-family="sans-serif" font-size="12" lengthAdjust="spacing" textLength="90" x="305.5" y="498.4355">TVALID_OUT=1</text><text fill="#000000" font-family="sans-serif" font-size="12" lengthAdjust="spacing" textLength="79" x="305.5" y="512.4043">TREADY_IN=1</text><text fill="#000000" font-family="sans-serif" font-size="12" lengthAdjust="spacing" textLength="74" x="305.5" y="526.373">COUNTER=0</text><text fill="#000000" font-family="sans-serif" font-size="12" lengthAdjust="spacing" textLength="144" x="305.5" y="540.3418">TLAST=TLAST_RECEIVED</text></g><!--link *start* to ACCEPT_DATA_IN--><g id="link_*start*_ACCEPT_DATA_IN"><path d="M592.5,26.004 C592.5,40.69 592.5,70.841 592.5,97.492 " fill="none" id="*start*-to-ACCEPT_DATA_IN" style="stroke:#181818;stroke-width:1.0;"/><polygon fill="#181818" points="592.5,102.77,596.5,93.77,592.5,97.77,588.5,93.77,592.5,102.77" style="stroke:#181818;stroke-width:1.0;"/><text fill="#000000" font-family="sans-serif" font-size="13" lengthAdjust="spacing" textLength="41" x="593.5" y="69.0669">RESET</text></g><!--link ACCEPT_DATA_IN to ACCEPT_DATA_IN--><g id="link_ACCEPT_DATA_IN_ACCEPT_DATA_IN"><path d="M665.101,133.356 C684.902,134.147 700,139.361 700,149 C700,157.81 687.386,162.924 670.095,164.342 " fill="none" id="ACCEPT_DATA_IN-to-ACCEPT_DATA_IN" style="stroke:#181818;stroke-width:1.0;"/><polygon fill="#181818" points="665.101,164.644,674.3267,168.0916,670.0918,164.3412,673.8422,160.1063,665.101,164.644" style="stroke:#181818;stroke-width:1.0;"/><text fill="#000000" font-family="sans-serif" font-size="13" lengthAdjust="spacing" textLength="83" x="706" y="153.5669">TVALID_IN=0</text></g><!--link ACCEPT_DATA_IN to DATA_OUT--><g id="link_ACCEPT_DATA_IN_DATA_OUT"><path d="M519.626,180.049 C459.022,205.039 371.695,241.048 301.795,269.871 " fill="none" id="ACCEPT_DATA_IN-to-DATA_OUT" style="stroke:#181818;stroke-width:1.0;"/><polygon fill="#181818" points="296.793,271.934,306.6383,272.1983,301.4149,270.0267,303.5866,264.8033,296.793,271.934" style="stroke:#181818;stroke-width:1.0;"/><text fill="#000000" font-family="sans-serif" font-size="13" lengthAdjust="spacing" textLength="83" x="403.5" y="238.0669">TVALID_IN=1</text></g><!--link DATA_OUT to DATA_OUT--><g id="link_DATA_OUT_DATA_OUT"><path d="M368.289,304.558 C389.319,307.039 403,311.52 403,318 C403,323.924 391.569,328.176 373.544,330.758 " fill="none" id="DATA_OUT-to-DATA_OUT" style="stroke:#181818;stroke-width:1.0;"/><polygon fill="#181818" points="368.289,331.442,377.7302,334.2463,373.2471,330.7963,376.6971,326.3133,368.289,331.442" style="stroke:#181818;stroke-width:1.0;"/><text fill="#000000" font-family="sans-serif" font-size="13" lengthAdjust="spacing" textLength="137" x="486" y="315.0669">(TREADY_OUT=0) OR</text><text fill="#000000" font-family="sans-serif" font-size="13" lengthAdjust="spacing" textLength="291" x="413" y="330.1997">(TREADY_OUT=1 &amp;&amp; LAST_SUBTRANSFER=0)</text></g><!--link DATA_OUT to LAST_DATA_OUT--><g id="link_DATA_OUT_LAST_DATA_OUT"><path d="M174.799,364.086 C171.718,384.629 172.251,408.261 184.5,426 C209.539,462.2596 254.545,481.0064 295.327,490.691 " fill="none" id="DATA_OUT-to-LAST_DATA_OUT" style="stroke:#181818;stroke-width:1.0;"/><polygon fill="#181818" points="300.278,491.8277,292.401,485.9157,295.4047,490.7091,290.6113,493.7129,300.278,491.8277" style="stroke:#181818;stroke-width:1.0;"/><text fill="#000000" font-family="sans-serif" font-size="13" lengthAdjust="spacing" textLength="104" x="208" y="407.0669">TREADY_OUT=1</text><text fill="#000000" font-family="sans-serif" font-size="13" lengthAdjust="spacing" textLength="149" x="189.5" y="422.1997">LAST_SUBTRANSFER=1</text></g><!--link LAST_DATA_OUT to DATA_OUT--><g id="link_LAST_DATA_OUT_DATA_OUT"><path d="M374.229,455.7834 C368.512,434.967 359.031,411.144 343.5,394 C334.246,383.785 323.3,374.823 311.566,366.993 " fill="none" id="LAST_DATA_OUT-to-DATA_OUT" style="stroke:#181818;stroke-width:1.0;"/><polygon fill="#181818" points="307.209,364.159,312.5733,372.4188,311.4006,366.8848,316.9346,365.7122,307.209,364.159" style="stroke:#181818;stroke-width:1.0;"/><text fill="#000000" font-family="sans-serif" font-size="13" lengthAdjust="spacing" textLength="104" x="364.5" y="407.0669">TREADY_OUT=1</text><text fill="#000000" font-family="sans-serif" font-size="13" lengthAdjust="spacing" textLength="83" x="379" y="422.1997">TVALID_IN=1</text></g><!--link LAST_DATA_OUT to LAST_DATA_OUT--><g id="link_LAST_DATA_OUT_LAST_DATA_OUT"><path d="M464.509,485.0195 C484.57,486.2773 499.5,491.9375 499.5,502 C499.5,511.1978 487.026,516.7173 469.561,518.5587 " fill="none" id="LAST_DATA_OUT-to-LAST_DATA_OUT" style="stroke:#181818;stroke-width:1.0;"/><polygon fill="#181818" points="464.509,518.9805,473.8104,522.2184,469.4917,518.5648,473.1453,514.2461,464.509,518.9805" style="stroke:#181818;stroke-width:1.0;"/><text fill="#000000" font-family="sans-serif" font-size="13" lengthAdjust="spacing" textLength="104" x="505.5" y="506.5669">TREADY_OUT=0</text></g><!--link LAST_DATA_OUT to ACCEPT_DATA_IN--><g id="link_LAST_DATA_OUT_ACCEPT_DATA_IN"><path d="M464.659,492.0727 C542.752,478.7364 656.107,445.666 710.5,364 C733.166,329.969 725.832,309.905 710.5,272 C699.115,243.853 677.778,218.6 656.346,198.471 " fill="none" id="LAST_DATA_OUT-to-ACCEPT_DATA_IN" style="stroke:#181818;stroke-width:1.0;"/><polygon fill="#181818" points="652.627,195.029,656.5164,204.0773,656.297,198.4247,661.9496,198.2053,652.627,195.029" style="stroke:#181818;stroke-width:1.0;"/><text fill="#000000" font-family="sans-serif" font-size="13" lengthAdjust="spacing" textLength="104" x="725.5" y="315.0669">TREADY_OUT=1</text><text fill="#000000" font-family="sans-serif" font-size="13" lengthAdjust="spacing" textLength="83" x="740" y="330.1997">TVALID_IN=0</text></g><!--SRC=[dLF12i8m3BttAt9IfmpQgp2XRXK6iadN2QBIau8WNln_iEj6rvhke3riNPBtblUQdfTNIDCDy3mN1wKBhhWkArY358rGXA2uEl9zMUYwLHcDPANWnSdiCuQJUTrMIiWeRi-RZd2U_hI-YQ9AXevDJpHMR_T63lJBhsU449SEfBCWxaHJF_ouBuQC-KwS_5N6uFPytvmTmpjW_CkEaG7hMeFNJ4OJg2LSNa6GmMm6tOzrqswLv5Mpwmuh2Mbj0HRV4nX6HD2PI13AjtA2qXx0TswS8OIodjcdbY8NvL4KlneOScAveLuQgP-w4SuVVnen70_Z99nz0000]--></g></svg>